HIERARCHY
ROOT Hips
{
	OFFSET	0.00	0.00	0.00
	CHANNELS 6 Xposition Yposition Zposition Zrotation Xrotation Yrotation
	JOINT LeftUpLeg
	{
		OFFSET	 0.126116	-0.014019	-0.065224
		CHANNELS 3 Zrotation Xrotation Yrotation
		JOINT LeftLeg
		{
			OFFSET	 0.000000	 0.000000	 0.569914
			CHANNELS 3 Zrotation Xrotation Yrotation
			JOINT LeftFoot
			{
				OFFSET	 0.000000	 0.000000	 0.544423
				CHANNELS 3 Zrotation Xrotation Yrotation
				JOINT LeftToeBase
				{
					OFFSET	 0.000000	 0.000000	 0.207117
					CHANNELS 3 Zrotation Xrotation Yrotation
					End Site
					{
						OFFSET	 0.000000	 0.000000	 0.207117
					}
				}
			}
		}
	}
	JOINT RightUpLeg
	{
		OFFSET	-0.124023	-0.008373	-0.065224
		CHANNELS 3 Zrotation Xrotation Yrotation
		JOINT RightLeg
		{
			OFFSET	 0.000000	 0.000000	 0.570047
			CHANNELS 3 Zrotation Xrotation Yrotation
			JOINT RightFoot
			{
				OFFSET	 0.000000	 0.000000	 0.544354
				CHANNELS 3 Zrotation Xrotation Yrotation
				JOINT RightToeBase
				{
					OFFSET	 0.000000	 0.000000	 0.207540
					CHANNELS 3 Zrotation Xrotation Yrotation
					End Site
					{
						OFFSET	 0.000000	 0.000000	 0.207540
					}
				}
			}
		}
	}
	JOINT Spine
	{
		OFFSET	 0.000184	-0.007763	 0.117403
		CHANNELS 3 Zrotation Xrotation Yrotation
		JOINT Spine1
		{
			OFFSET	 0.000000	 0.000000	 0.137269
			CHANNELS 3 Zrotation Xrotation Yrotation
			JOINT Spine2
			{
				OFFSET	 0.000000	 0.000000	 0.156879
				CHANNELS 3 Zrotation Xrotation Yrotation
				JOINT LeftShoulder
				{
					OFFSET	 0.080501	-0.002496	 0.160144
					CHANNELS 3 Zrotation Xrotation Yrotation
					JOINT LeftArm
					{
						OFFSET	 0.000000	 0.000000	 0.164363
						CHANNELS 3 Zrotation Xrotation Yrotation
						JOINT LeftForeArm
						{
							OFFSET	 0.000000	 0.000000	 0.364576
							CHANNELS 3 Zrotation Xrotation Yrotation
							JOINT LeftHand
							{
								OFFSET	 0.000000	 0.000000	 0.360812
								CHANNELS 3 Zrotation Xrotation Yrotation
								JOINT LeftHandIndex1
								{
									OFFSET	 0.000000	 0.000000	 0.086006
									CHANNELS 3 Zrotation Xrotation Yrotation
									JOINT LeftHandIndex2
									{
										OFFSET	 0.000000	 0.000000	 0.047236
										CHANNELS 3 Zrotation Xrotation Yrotation
										JOINT LeftHandIndex3
										{
											OFFSET	-0.004284	-0.000551	 0.038166
											CHANNELS 3 Zrotation Xrotation Yrotation
											End Site
											{
												OFFSET	-0.004284	-0.000551	 0.038166
											}
										}
									}
								}
							}
						}
					}
				}
				JOINT Neck
				{
					OFFSET	 0.000000	 0.000000	 0.176489
					CHANNELS 3 Zrotation Xrotation Yrotation
					JOINT Head
					{
						OFFSET	 0.000000	-0.001747	 0.077940
						CHANNELS 3 Zrotation Xrotation Yrotation
						End Site
						{
							OFFSET	 0.000000	-0.001747	 0.077940
						}
					}
				}
				JOINT RightShoulder
				{
					OFFSET	-0.080363	 0.000306	 0.159706
					CHANNELS 3 Zrotation Xrotation Yrotation
					JOINT RightArm
					{
						OFFSET	 0.000000	 0.000000	 0.164196
						CHANNELS 3 Zrotation Xrotation Yrotation
						JOINT RightForeArm
						{
							OFFSET	 0.000000	 0.000000	 0.365611
							CHANNELS 3 Zrotation Xrotation Yrotation
							JOINT RightHand
							{
								OFFSET	 0.000000	 0.000000	 0.360648
								CHANNELS 3 Zrotation Xrotation Yrotation
								JOINT RightHandIndex1
								{
									OFFSET	 0.000000	 0.000000	 0.069977
									CHANNELS 3 Zrotation Xrotation Yrotation
									JOINT RightHandIndex2
									{
										OFFSET	 0.000000	 0.000000	 0.052305
										CHANNELS 3 Zrotation Xrotation Yrotation
										JOINT RightHandIndex3
										{
											OFFSET	 0.009002	-0.000782	 0.042196
											CHANNELS 3 Zrotation Xrotation Yrotation
											End Site
											{
												OFFSET	 0.009002	-0.000782	 0.042196
											}
										}
									}
								}
							}
						}
					}
				}
			}
		}
	}
}
MOTION
Frames:    5
Frame Time: 0.03333334
 7.244604	 0.262486	 0.185313	-175.282500	 0.637491	 3.683498	 5.060712	-3.928201	 176.467200	-11.291900	-33.679770	-5.170935	 171.955500	 86.657950	 179.353900	-2.377585	 30.158970	-0.037319	 1.786556	-12.635410	 178.894300	 3.650068	-47.586660	 5.717056	-175.199700	 82.194150	-178.848700	 2.403662	 22.146360	-0.130153	-0.838572	 0.478487	-1.797119	-0.365749	-2.376040	-0.197133	 0.001584	-4.479697	 0.000167	-91.809570	 77.633270	 179.116000	 36.885960	 69.876210	-39.980250	-7.947339	-3.985183	-19.707610	 3.441975	-26.746810	-5.970622	-3.812334	 37.924440	-2.927599	-2.450526	 36.184240	 0.754587	-1.378229	 35.397820	-2.634230	 0.568085	 6.078161	-3.223940	 0.333691	-13.438880	-1.582483	 89.766100	 79.242230	-179.653700	-36.471850	 70.281220	 39.113850	 4.194324	-7.842501	 30.867620	-6.797452	-27.461300	 10.812430	 6.437017	 35.671460	-0.771858	 2.830251	 35.756010	-7.813440	-2.350882	 35.473990	 5.254307
 7.243896	 0.266094	 0.184686	-174.968100	 0.714339	 3.705235	 5.034163	-4.124834	 176.502400	-11.139400	-33.928380	-5.133739	 171.978900	 86.398320	 179.449800	-2.376723	 30.321980	-0.040935	 1.774638	-12.734110	 178.979800	 3.704421	-47.781850	 5.782366	-175.659100	 81.880230	-178.376800	 2.403628	 22.166480	-0.129745	-0.857983	 0.517752	-1.894066	-0.407771	-2.348544	-0.213051	-0.090441	-4.449810	-0.009469	-91.809750	 77.594830	 179.146400	 36.631750	 69.848880	-39.609970	-8.034301	-4.026216	-20.199610	 3.350181	-26.766020	-5.974710	-3.812334	 37.924440	-2.927599	-2.450526	 36.184240	 0.754587	-1.378229	 35.397820	-2.634230	 0.472791	 5.972228	-3.246600	 0.238383	-13.277620	-1.557821	 89.764660	 79.279200	-179.637100	-36.308250	 70.414820	 39.051760	 4.265121	-7.775321	 30.399860	-6.850867	-27.489770	 10.814290	 6.437017	 35.671460	-0.771858	 2.830251	 35.756010	-7.813440	-2.350882	 35.473990	 5.254307
 7.242457	 0.254861	 0.183954	-174.782300	 0.807007	 3.736015	 5.000050	-4.381347	 176.551400	-10.943590	-34.287750	-5.090462	 171.950500	 86.083480	 179.634000	-2.375392	 30.567920	-0.046405	 1.868409	-12.986440	 178.969100	 3.989713	-48.361510	 6.128623	-176.123200	 81.461370	-177.738800	 2.403389	 22.301510	-0.127018	-0.850773	 0.555950	-1.924579	-0.415178	-2.376644	-0.269053	-0.125779	-4.486399	-0.013209	-91.807690	 77.629010	 179.169600	 36.591090	 69.732600	-39.659160	-8.122458	-4.044076	-20.630340	 3.219112	-26.815920	-5.980745	-3.812334	 37.924440	-2.927599	-2.450526	 36.184240	 0.754587	-1.378229	 35.397820	-2.634230	 0.460200	 5.628731	-3.522580	 0.234160	-13.006560	-1.282687	 89.764660	 79.242260	-179.622900	-36.288040	 70.496520	 39.139230	 4.236695	-7.726833	 29.931260	-6.936511	-27.551980	 10.818330	 6.437017	 35.671460	-0.771858	 2.830251	 35.756010	-7.813440	-2.350882	 35.473990	 5.254307
 7.239437	 0.254928	 0.183238	-174.820300	 0.831051	 3.678674	 5.074503	-4.597736	 176.677900	-10.815190	-34.617620	-5.007595	 172.241000	 85.810770	 179.551300	-2.374481	 30.733220	-0.050097	 2.069980	-13.583920	 179.056400	 4.288104	-49.532780	 6.649105	-176.247500	 81.186010	-177.424700	 2.401996	 23.017060	-0.112509	-0.869132	 0.761726	-1.814929	-0.527186	-2.413697	-0.303073	-0.303023	-4.537903	-0.031959	-91.802770	 77.727260	 179.216000	 36.620670	 69.566750	-39.899530	-8.182512	-4.041277	-20.888000	 3.100681	-26.888730	-5.987344	-3.812334	 37.924440	-2.927599	-2.450526	 36.184240	 0.754587	-1.378229	 35.397820	-2.634230	 0.256932	 5.569315	-3.336003	 0.035475	-13.059120	-1.623821	 89.766300	 79.139710	-179.619700	-36.401820	 70.560290	 39.503530	 4.207146	-7.714658	 29.551430	-7.054020	-27.635110	 10.824680	 6.437017	 35.671460	-0.771858	 2.830251	 35.756010	-7.813440	-2.350882	 35.473990	 5.254307
 7.235526	 0.255011	 0.182407	-175.002300	 0.847677	 3.440967	 5.366864	-4.755293	 176.974900	-10.826480	-34.891460	-4.848149	 173.219200	 85.569690	 178.885100	-2.373764	 30.862870	-0.052990	 2.247811	-14.839240	 179.366100	 4.751955	-51.761530	 7.445045	-176.199000	 81.175280	-177.333800	 2.398057	 24.640620	-0.079208	-0.863261	 1.181733	-1.501925	-0.651943	-2.487904	-0.288081	-0.477201	-4.650511	-0.050795	-91.795890	 77.881590	 179.283300	 36.732250	 69.329500	-40.415100	-8.226496	-4.023844	-21.010880	 2.992408	-26.996510	-5.995109	-3.812334	 37.924440	-2.927599	-2.450526	 36.184240	 0.754587	-1.378229	 35.397820	-2.634230	 0.055417	 5.521014	-3.154780	-0.149113	-13.244490	-1.960840	 89.770620	 78.975270	-179.661700	-36.584310	 70.614810	 40.000980	 4.221859	-7.685200	 29.195250	-7.124524	-27.749730	 10.834200	 6.437017	 35.671460	-0.771858	 2.830251	 35.756010	-7.813440	-2.350882	 35.473990	 5.254307
